<svg xmlns="http://www.w3.org/2000/svg" viewBox="0 0 120 120" width="120" height="120"><title>ตารางบริบูรณ์ · favicon</title><rect width="120" height="120" rx="26" fill="#0F2438"/><g fill="none" stroke="#E3B85A" stroke-width="10" stroke-linecap="round" stroke-linejoin="round"><path d="M40 22 Q28 22 28 34 L28 50 Q28 60 18 60 Q28 60 28 70 L28 86 Q28 98 40 98"/><path d="M80 22 Q92 22 92 34 L92 50 Q92 60 102 60 Q92 60 92 70 L92 86 Q92 98 80 98"/></g><rect x="42" y="38" width="16" height="18" rx="3" fill="#7FB0E8"/><rect x="62" y="38" width="16" height="18" rx="3" fill="#E3B85A"/><rect x="42" y="64" width="16" height="18" rx="3" fill="#7FB0E8" fill-opacity=".45"/><rect x="62" y="64" width="16" height="18" rx="3" fill="#7FB0E8"/></svg>
